<?xml version="1.0" encoding="UTF-8" standalone="no"?>
<!-- Created with Inkscape (http://www.inkscape.org/) -->

<svg
   width="128"
   height="128"
   viewBox="0 0 33.866666 33.866666"
   version="1.1"
   id="svg1"
   inkscape:version="1.3.2 (091e20e, 2023-11-25, custom)"
   sodipodi:docname="mouth_03.svg"
   xml:space="preserve"
   xmlns:inkscape="http://www.inkscape.org/namespaces/inkscape"
   xmlns:sodipodi="http://sodipodi.sourceforge.net/DTD/sodipodi-0.dtd"
   xmlns="http://www.w3.org/2000/svg"
   xmlns:svg="http://www.w3.org/2000/svg"><sodipodi:namedview
     id="namedview1"
     pagecolor="#ffffff"
     bordercolor="#000000"
     borderopacity="0.25"
     inkscape:showpageshadow="2"
     inkscape:pageopacity="0.0"
     inkscape:pagecheckerboard="0"
     inkscape:deskcolor="#3f3f3f"
     inkscape:document-units="mm"
     inkscape:zoom="9.227188"
     inkscape:cx="97.429467"
     inkscape:cy="78.843089"
     inkscape:window-width="3840"
     inkscape:window-height="2066"
     inkscape:window-x="-11"
     inkscape:window-y="-11"
     inkscape:window-maximized="1"
     inkscape:current-layer="layer1"
     showgrid="true"><inkscape:grid
       id="grid1"
       units="px"
       originx="0"
       originy="0"
       spacingx="2.1166666"
       spacingy="2.1166666"
       empcolor="#0099e5"
       empopacity="0.30196078"
       color="#0099e5"
       opacity="0.14901961"
       empspacing="5"
       dotted="false"
       gridanglex="30"
       gridanglez="30"
       visible="true" /></sodipodi:namedview><defs
     id="defs1" /><g
     inkscape:label="Layer 1"
     inkscape:groupmode="layer"
     id="layer1"><path
       style="fill:#000000"
       d="M 21.065066,21.833336 C 18.432498,21.755325 16.653653,21.495643 14.926651,20.937228 13.477717,20.468725 12.581125,19.972271 11.020653,18.77443 9.5358705,17.634688 8.8514765,16.883058 7.5347637,14.946079 7.0311314,14.2052 6.7468448,13.81999 6.5308832,13.585814 6.3796204,13.421795 6.3603669,13.352588 6.4139861,13.165628 6.4725682,12.961365 6.3265366,12.485142 6.1588649,12.333654 6.0426418,12.228649 5.8956377,12.198005 5.3842609,12.172182 4.8740892,12.14642 4.7281465,12.111099 4.6266721,11.988829 c -0.033652,-0.04055 -0.032054,-0.06982 0.00804,-0.147363 0.059474,-0.115011 0.098969,-0.136525 0.5723321,-0.311761 0.9098907,-0.336838 1.0703619,-0.479101 1.2446297,-1.103408 0.099097,-0.355009 0.1884354,-0.5404208 0.3094678,-0.6422628 0.1607579,-0.135269 0.2945694,-0.04835 0.4090889,0.2657318 0.095734,0.262559 0.2586929,0.420212 0.7119647,0.688781 1.1245032,0.666283 3.2023287,1.546571 5.0040657,2.120015 5.162102,1.642954 7.088409,2.031624 10.092268,2.036312 1.20584,0.0019 1.529049,-0.02057 2.230049,-0.154885 1.278912,-0.245052 2.675477,-0.868287 3.341232,-1.491069 0.398944,-0.373192 0.540975,-0.695177 0.677411,-1.53569 0.09469,-0.583325 0.162624,-0.809537 0.264565,-0.880939 0.100046,-0.07008 0.168685,-0.06304 0.251916,0.02581 0.09134,0.09751 0.136281,0.218121 0.194343,0.521584 0.05542,0.289642 0.11775,0.421106 0.287911,0.607232 0.157508,0.172286 0.256137,0.428203 0.357871,0.928584 0.169146,0.831947 0.273462,2.297732 0.237406,3.335866 -0.06344,1.82659 -0.163402,2.374798 -0.592824,3.2512 -0.639695,1.305547 -1.447118,1.7399 -3.897081,2.096434 -1.347582,0.196108 -3.429742,0.288761 -5.266266,0.234339 z m 0.918669,-0.730189 c 0.06529,-0.03518 0.126089,-0.107584 0.158624,-0.188897 0.07069,-0.176665 0.294307,-1.319407 0.294307,-1.503969 0,-0.292837 -0.0953,-0.340504 -0.795867,-0.398054 -0.655935,-0.05388 -1.251378,-0.134206 -1.537638,-0.207418 -0.243882,-0.06238 -0.257077,-0.06258 -0.31472,-0.0049 -0.09674,0.09674 -0.129623,0.349443 -0.150942,1.159893 -0.02185,0.830814 6e-4,1.012028 0.136431,1.101027 0.116585,0.07639 0.598587,0.113018 1.392736,0.105837 0.593831,-0.0054 0.728671,-0.01585 0.817069,-0.06348 z m 1.85191,0.03821 c 0.133955,-0.02068 0.285765,-0.05933 0.337355,-0.08588 0.168659,-0.08681 0.443317,-0.532266 0.699004,-1.133696 0.261004,-0.613935 0.217779,-0.65207 -0.742005,-0.65462 -0.710259,-0.0019 -0.75015,0.0089 -0.847387,0.229831 -0.137725,0.31288 -0.32011,1.20552 -0.298524,1.461058 0.0087,0.103455 0.03101,0.14457 0.09604,0.177301 0.105197,0.05295 0.434543,0.05556 0.755513,0.006 z m 2.074479,-0.217713 c 0.164375,-0.02867 0.366281,-0.08194 0.448679,-0.118388 0.133541,-0.05907 0.147923,-0.07617 0.132398,-0.157378 -0.02862,-0.149707 0.06604,-0.439252 0.315504,-0.965031 0.129705,-0.273377 0.235827,-0.528647 0.235827,-0.567267 0,-0.08704 -0.03758,-0.0876 -0.36689,-0.0054 -0.142804,0.03563 -0.328223,0.0752 -0.412043,0.08792 -0.08382,0.01273 -0.184262,0.04329 -0.223203,0.06793 -0.102051,0.06456 -0.283542,0.462497 -0.489362,1.07298 -0.233028,0.691189 -0.234838,0.688242 0.35909,0.58467 z m -7.170019,-0.06099 c 0.115373,-0.122809 0.138432,-0.2571 0.17499,-1.019092 0.05844,-1.218158 0.03268,-1.275433 -0.656513,-1.459614 -0.599993,-0.160342 -1.305889,-0.378626 -1.963058,-0.607036 -0.350794,-0.121925 -0.681728,-0.221681 -0.735408,-0.221681 -0.131065,0 -0.167716,0.07974 -0.167716,0.364889 0,0.345694 -0.101494,0.683859 -0.366977,1.222724 -0.334851,0.679666 -0.348905,0.820464 -0.09644,0.96625 0.370154,0.213749 2.203218,0.688957 3.121953,0.809342 0.05588,0.0073 0.217053,0.0156 0.358163,0.01839 0.228748,0.0045 0.264634,-0.0035 0.331009,-0.07417 z m 9.216657,-0.367958 c 0.372362,-0.103846 0.740683,-0.261565 0.81227,-0.347821 0.07746,-0.09334 0.01552,-0.153203 -0.159104,-0.153763 -0.181283,-5.8e-4 -0.219332,-0.01775 -0.275392,-0.124255 -0.05817,-0.110515 -0.04894,-0.201926 0.06453,-0.638956 0.08625,-0.332182 0.09595,-0.406028 0.0583,-0.443685 -0.07121,-0.07121 -0.238079,0.03956 -0.415893,0.276082 -0.148723,0.197823 -0.554124,0.976361 -0.689833,1.324762 -0.111533,0.286339 -0.06521,0.29458 0.605123,0.107636 z m 1.316333,-0.729665 c 0.109201,-0.215106 0.501318,-1.165774 0.565568,-1.371189 0.0643,-0.205591 0.04787,-0.284435 -0.03663,-0.175739 -0.116836,0.150288 -0.43172,0.73487 -0.53857,0.999855 -0.130803,0.324386 -0.17153,0.501101 -0.139063,0.603395 0.0328,0.103335 0.07594,0.08699 0.148697,-0.05632 z m -15.42787,-0.183333 c 0.111258,-0.05926 0.145577,-0.111641 0.362461,-0.553268 0.374009,-0.761567 0.515913,-1.353046 0.388853,-1.620804 -0.07268,-0.153168 -0.257189,-0.266763 -0.558807,-0.344041 -0.35252,-0.09032 -0.907474,-0.30414 -1.761067,-0.67853 -0.802917,-0.352163 -0.993387,-0.415181 -1.080803,-0.357588 -0.03303,0.02176 -0.05571,0.140074 -0.07317,0.381717 -0.02818,0.39011 -0.109648,0.652024 -0.267842,0.861087 -0.05517,0.07291 -0.100728,0.166319 -0.101246,0.207581 -0.0023,0.179039 0.391291,0.494512 1.722757,1.381015 0.773829,0.515222 1.182867,0.76223 1.262232,0.76223 0.01796,0 0.06594,-0.01773 0.106628,-0.0394 z m -3.638384,-2.725161 c 0.116381,-0.08152 0.173291,-0.251551 0.173291,-0.517752 0,-0.47456 -0.103363,-0.755273 -0.36265,-0.984877 -0.2394905,-0.212075 -1.7605346,-0.936115 -1.8269794,-0.86967 -0.03008,0.03008 0.3949899,0.660826 0.9036639,1.340913 0.434961,0.581535 0.889158,1.086612 0.9771485,1.086612 0.03117,0 0.09216,-0.02485 0.135526,-0.05523 z m 9.343761,-0.0227 c 0.03705,-0.03355 0.07605,-0.104469 0.08668,-0.157602 0.03186,-0.159271 -0.03997,-0.87729 -0.100518,-1.004889 -0.07397,-0.155881 -0.266395,-0.262864 -0.657013,-0.365283 -0.501688,-0.13154 -2.599187,-0.538068 -2.658586,-0.515275 -0.0836,0.03208 -0.172743,0.27158 -0.301705,0.810605 -0.137398,0.57429 -0.130665,0.622907 0.101386,0.731984 0.356136,0.167404 1.426237,0.422724 2.199423,0.52477 0.204893,0.02704 0.572884,0.04636 0.817757,0.04293 0.375643,-0.0053 0.45575,-0.01577 0.512579,-0.06724 z m 3.166488,0.0013 c 0.05007,-0.03283 0.09991,-0.09506 0.110757,-0.13828 0.02401,-0.09568 -0.143255,-0.868724 -0.200923,-0.928581 -0.04423,-0.04591 -0.765125,-0.148865 -1.511069,-0.215812 -0.695829,-0.06245 -0.743748,-0.0223 -0.744556,0.623789 -6.01e-4,0.479732 0.04009,0.609351 0.20789,0.662183 0.201395,0.06341 0.269649,0.06703 1.164772,0.06167 0.779884,-0.0047 0.892643,-0.01219 0.973129,-0.06497 z m 2.699842,-0.02253 c 0.708019,-0.09247 0.878466,-0.17789 0.829931,-0.415932 -0.05687,-0.278935 -0.201187,-0.704514 -0.266721,-0.786562 -0.136318,-0.170667 -0.395339,-0.170977 -1.488516,-0.0018 -0.901052,0.139461 -0.971368,0.176717 -0.971031,0.514492 3.06e-4,0.306219 0.0577,0.59095 0.134614,0.667868 0.04425,0.04425 0.131143,0.0747 0.246191,0.08627 0.229083,0.02303 1.143895,-0.01582 1.515532,-0.06435 z m 2.014492,-0.169773 c 0.165436,-0.03615 0.339924,-0.09474 0.387751,-0.130185 0.215936,-0.16005 0.325851,-0.539967 0.320542,-1.10795 -0.0028,-0.300511 -0.01731,-0.403634 -0.075,-0.5334 -0.06298,-0.141662 -0.08398,-0.160867 -0.175927,-0.160867 -0.137435,0 -0.761197,0.295784 -0.922583,0.437482 -0.151221,0.132775 -0.158105,0.202695 -0.06086,0.618177 0.03631,0.155141 0.0757,0.381134 0.08753,0.502208 0.02353,0.240837 0.07483,0.440266 0.113252,0.440266 0.01347,0 0.159846,-0.02958 0.325283,-0.06573 z m 1.849694,-0.648783 c 0.228712,-0.161025 0.267547,-0.220052 0.267547,-0.406646 0,-0.201823 -0.242079,-0.957318 -0.419879,-1.310382 -0.116895,-0.232121 -0.196496,-0.316171 -0.249367,-0.2633 -0.122371,0.122371 -0.0043,1.778569 0.142842,2.003083 0.06847,0.104494 0.0795,0.103525 0.258857,-0.02276 z M 15.088507,15.732453 c 0.09669,-0.313037 0.236159,-0.930734 0.236159,-1.045908 0,-0.240819 -0.144774,-0.308997 -1.524001,-0.717695 -0.568113,-0.168345 -1.298259,-0.38978 -1.622546,-0.492077 -1.048615,-0.330787 -1.123843,-0.341574 -1.188895,-0.170473 -0.124263,0.326837 0.158771,0.857763 0.767509,1.43972 0.292263,0.279405 0.419194,0.355798 0.666382,0.401058 0.321744,0.05891 0.643387,0.164472 1.37755,0.452103 0.989602,0.387707 1.126253,0.433162 1.176597,0.39138 0.02331,-0.01935 0.07337,-0.135497 0.111245,-0.258108 z m -4.823815,-1.449935 c 0.03194,-0.170236 -0.007,-0.981734 -0.05502,-1.146888 -0.05856,-0.201368 -0.183169,-0.344623 -0.4520365,-0.519659 -0.360452,-0.234657 -2.0392695,-1.065535 -2.370965,-1.173434 -0.2749589,-0.08944 -0.2936804,-0.09134 -0.3751689,-0.03794 -0.076212,0.04994 -0.085769,0.07914 -0.085769,0.262088 0,0.231465 0.1493832,0.726585 0.2937559,0.973635 0.1654868,0.28318 0.4385203,0.533618 0.8246263,0.756383 0.5065167,0.292236 2.0095892,1.005708 2.1228162,1.00765 0.05941,10e-4 0.07938,-0.02387 0.09776,-0.121832 z m 19.690043,-0.513886 c -7.71e-4,-0.133456 -0.235109,-0.548335 -0.309718,-0.548335 -0.08337,0 0.0648,0.43572 0.198355,0.583291 0.06008,0.06639 0.111854,0.05014 0.111363,-0.03496 z"
       id="path1" /></g><g
     inkscape:groupmode="layer"
     id="layer2"
     inkscape:label="Layer 2" /></svg>
